:SAMPLES-PER-SECOND 30
:FULLY-SPECIFIED
:DEGREES
64
root  -30.2961 15.3251 -2.60578 -72.5534 87.8533 -63.6669
RightUpLeg  -73.8525 -3.35993 5.45588
RightLeg  142.26 13.3712 -0.527575
RightFoot  -38.0193 0.899839 4.01744
RightToes  2.21189e-009 -3.18055e-015 8.94531e-016
Spine  54.1397 -2.00958 2.39596
Spine1  7.953 0.195453 -1.07677
HEad  -35.1749 -0.181936 2.85182
LeftShoulder1  0 0 -2.47967e-037
LeftArm  -6.81739 -46.4459 -78.8574
LeftForeArm  -135.6 -50.3157 168.261
LeftHand  0.120913 4.43756 17.5557
RightShoulder  -2.48481e-017 0 -8.08114e-019
RightArm  -2.19261 37.3748 80.3921
RightForeArm  -87.0033 48.345 -151.508
RightHand  2.60251 -13.2051 -21.0504
LeftUpLeg  -88.5137 -4.44114 -3.23664
LeftLeg  130.587 -19.5861 5.16614
LeftFoot  -32.3003 -0.0836071 0.0745901
LeftToes  -2.77942e-009 -2.0471e-010 1.20669e-012
65
root  -29.7353 14.7957 -2.66614 -72.9909 87.1341 -63.581
RightUpLeg  -72.9737 -3.42577 5.68502
RightLeg  145.003 13.0337 -0.11707
RightFoot  -37.8836 1.17557 5.30566
RightToes  2.21189e-009 -3.18055e-015 8.94531e-016
Spine  53.7341 -1.85098 2.3317
Spine1  8.94471 0.0959953 -0.60125
HEad  -37.065 -0.306035 2.90738
LeftShoulder1  0 0 -2.47967e-037
LeftArm  -8.07919 -47.5601 -77.179
LeftForeArm  -136.934 -50.3756 168.315
LeftHand  0.13859 4.53527 17.9686
RightShoulder  -2.48481e-017 0 -8.08114e-019
RightArm  -1.88853 38.3186 79.8976
RightForeArm  -86.5728 48.7692 -150.841
RightHand  2.94679 -14.304 -21.2728
LeftUpLeg  -89.0429 -3.73012 -2.40791
LeftLeg  134.263 -18.7975 3.56166
LeftFoot  -32.2658 -0.112034 -0.10077
LeftToes  -2.77942e-009 -2.0471e-010 1.20669e-012
66
root  -29.1663 14.8487 -2.71776 -71.9566 87.0128 -61.9169
RightUpLeg  -69.9409 -3.8768 5.41721
RightLeg  145.762 13.1493 -0.154452
RightFoot  -37.9218 1.44602 6.50666
RightToes  2.21189e-009 -3.18055e-015 8.94531e-016
Spine  54.0982 -1.68272 1.67757
Spine1  9.04923 -0.296264 -0.347128
HEad  -38.4601 -0.0742523 3.45254
LeftShoulder1  0 0 -2.47967e-037
LeftArm  -8.74185 -48.8112 -75.487
LeftForeArm  -138.107 -50.0953 168.62
LeftHand  0.303961 5.07695 17.8917
RightShoulder  -2.48481e-017 0 -8.08114e-019
RightArm  -1.7449 39.3756 79.2341
RightForeArm  -85.6498 48.6074 -151.026
RightHand  3.11587 -14.8048 -21.5509
LeftUpLeg  -86.8792 -3.29117 -2.09797
LeftLeg  136.051 -17.9343 2.41725
LeftFoot  -32.5764 -0.236763 -0.826815
LeftToes  -2.77942e-009 -2.0471e-010 1.20669e-012
67
root  -28.5604 15.5835 -2.77563 -73.4361 87.5676 -64.1619
RightUpLeg  -66.5669 -4.45433 4.38614
RightLeg  144.112 13.2958 -0.355985
RightFoot  -37.9455 1.68803 7.61129
RightToes  2.21189e-009 -3.18055e-015 8.94531e-016
Spine  53.796 -1.545 0.50689
Spine1  8.4483 -0.854956 -0.358989
HEad  -39.36 0.476962 3.83347
LeftShoulder1  0 0 -2.47967e-037
LeftArm  -8.53435 -49.9537 -74.4827
LeftForeArm  -134.651 -50.2434 168.254
LeftHand  0.214321 4.80304 18.1224
RightShoulder  -2.48481e-017 0 -8.08114e-019
RightArm  -2.12038 40.2888 78.0159
RightForeArm  -85.419 47.8947 -152.06
RightHand  3.05597 -14.5069 -21.926
LeftUpLeg  -83.3959 -3.51949 -2.59853
LeftLeg  135.223 -17.4018 2.06579
LeftFoot  -33.192 -0.506394 -2.33187
LeftToes  -2.77942e-009 -2.0471e-010 1.20669e-012
68
root  -27.8441 16.8863 -2.81816 -65.4196 87.6066 -57.889
RightUpLeg  -63.0142 -4.15981 3.81669
RightLeg  140.187 13.217 -0.539258
RightFoot  -37.6299 1.84618 8.42556
RightToes  2.21189e-009 -3.18055e-015 8.94531e-016
Spine  52.5517 -1.13301 -0.338088
Spine1  7.68428 -0.883294 -0.483956
HEad  -39.2432 0.816299 3.44542
LeftShoulder1  0 0 -2.47967e-037
LeftArm  -8.57548 -50.7335 -73.3655
LeftForeArm  -128.923 -50.8167 167.363
LeftHand  -0.0171763 3.98482 17.6427
RightShoulder  -2.48481e-017 0 -8.08114e-019
RightArm  -2.24854 40.9794 76.8112
RightForeArm  -85.3567 47.6115 -152.466
RightHand  3.0629 -14.4924 -22.0731
LeftUpLeg  -79.1086 -3.23936 -2.45962
LeftLeg  132.564 -16.8041 1.88578
LeftFoot  -33.5257 -0.813218 -4.02021
LeftToes  -2.77942e-009 -2.0471e-010 1.20669e-012
69
root  -26.9758 18.5567 -2.82381 -60.1035 87.2528 -54.0321
RightUpLeg  -58.2367 -3.61402 3.85065
RightLeg  134.65 13.0738 -0.80451
RightFoot  -37.0345 1.98657 9.31351
RightToes  2.21189e-009 -3.18055e-015 8.94531e-016
Spine  51.0554 -0.856889 -0.643344
Spine1  6.89569 -0.663053 -1.00568
HEad  -38.0948 1.03875 3.16416
LeftShoulder1  0 0 -2.47967e-037
LeftArm  -9.89851 -50.9555 -71.3627
LeftForeArm  -129.55 -50.4214 167.724
LeftHand  -0.0127934 3.89951 16.7712
RightShoulder  -2.48481e-017 0 -8.08114e-019
RightArm  -2.59535 41.2001 75.7694
RightForeArm  -85.7706 47.4341 -152.747
RightHand  3.0374 -14.5397 -21.5672
LeftUpLeg  -73.5702 -2.77311 -1.55169
LeftLeg  128.714 -15.9135 1.41832
LeftFoot  -33.3938 -1.07701 -5.54295
LeftToes  -2.77942e-009 -2.0471e-010 1.20669e-012
